%TF.GenerationSoftware,KiCad,Pcbnew,9.0.0*%
%TF.CreationDate,2025-03-13T13:55:14-06:00*%
%TF.ProjectId,electronic,656c6563-7472-46f6-9e69-632e6b696361,rev?*%
%TF.SameCoordinates,Original*%
%TF.FileFunction,Soldermask,Bot*%
%TF.FilePolarity,Negative*%
%FSLAX46Y46*%
G04 Gerber Fmt 4.6, Leading zero omitted, Abs format (unit mm)*
G04 Created by KiCad (PCBNEW 9.0.0) date 2025-03-13 13:55:14*
%MOMM*%
%LPD*%
G01*
G04 APERTURE LIST*
G04 Aperture macros list*
%AMRoundRect*
0 Rectangle with rounded corners*
0 $1 Rounding radius*
0 $2 $3 $4 $5 $6 $7 $8 $9 X,Y pos of 4 corners*
0 Add a 4 corners polygon primitive as box body*
4,1,4,$2,$3,$4,$5,$6,$7,$8,$9,$2,$3,0*
0 Add four circle primitives for the rounded corners*
1,1,$1+$1,$2,$3*
1,1,$1+$1,$4,$5*
1,1,$1+$1,$6,$7*
1,1,$1+$1,$8,$9*
0 Add four rect primitives between the rounded corners*
20,1,$1+$1,$2,$3,$4,$5,0*
20,1,$1+$1,$4,$5,$6,$7,0*
20,1,$1+$1,$6,$7,$8,$9,0*
20,1,$1+$1,$8,$9,$2,$3,0*%
G04 Aperture macros list end*
%ADD10RoundRect,0.250000X-0.725000X0.600000X-0.725000X-0.600000X0.725000X-0.600000X0.725000X0.600000X0*%
%ADD11O,1.950000X1.700000*%
%ADD12RoundRect,0.250000X-0.750000X0.600000X-0.750000X-0.600000X0.750000X-0.600000X0.750000X0.600000X0*%
%ADD13O,2.000000X1.700000*%
%ADD14RoundRect,0.250000X0.725000X-0.600000X0.725000X0.600000X-0.725000X0.600000X-0.725000X-0.600000X0*%
%ADD15RoundRect,0.250000X-0.600000X-0.725000X0.600000X-0.725000X0.600000X0.725000X-0.600000X0.725000X0*%
%ADD16O,1.700000X1.950000*%
%ADD17R,4.600000X2.000000*%
%ADD18O,4.200000X2.000000*%
%ADD19O,2.000000X4.200000*%
%ADD20R,2.000000X1.200000*%
%ADD21O,2.000000X1.200000*%
%ADD22RoundRect,0.250000X0.750000X-0.600000X0.750000X0.600000X-0.750000X0.600000X-0.750000X-0.600000X0*%
G04 APERTURE END LIST*
D10*
%TO.C,J25*%
X29500000Y-54000000D03*
D11*
X29500000Y-56500000D03*
X29500000Y-59000000D03*
X29500000Y-61500000D03*
X29500000Y-64000000D03*
%TD*%
D12*
%TO.C,J8*%
X76000000Y-51000000D03*
D13*
X76000000Y-53500000D03*
%TD*%
D14*
%TO.C,J30*%
X68000000Y-34000000D03*
D11*
X68000000Y-31500000D03*
X68000000Y-29000000D03*
%TD*%
D12*
%TO.C,J5*%
X76000000Y-42000000D03*
D13*
X76000000Y-44500000D03*
%TD*%
D15*
%TO.C,J4*%
X22000000Y-30637280D03*
D16*
X24500000Y-30637280D03*
X27000000Y-30637280D03*
X29500000Y-30637280D03*
%TD*%
D15*
%TO.C,J9*%
X22000000Y-45637280D03*
D16*
X24500000Y-45637280D03*
X27000000Y-45637280D03*
X29500000Y-45637280D03*
%TD*%
D17*
%TO.C,J1*%
X69000000Y-73337280D03*
D18*
X69000000Y-79637280D03*
D19*
X73800000Y-76237280D03*
%TD*%
D10*
%TO.C,J26*%
X76000000Y-28250000D03*
D11*
X76000000Y-30750000D03*
X76000000Y-33250000D03*
X76000000Y-35750000D03*
%TD*%
D20*
%TO.C,U1*%
X37000000Y-24300000D03*
D21*
X37000000Y-26840000D03*
X37000000Y-29380000D03*
X37000000Y-31920000D03*
X37000000Y-34460000D03*
X37000000Y-37000000D03*
X37000000Y-39540000D03*
X37000000Y-42080000D03*
X37000000Y-44620000D03*
X37000000Y-47160000D03*
X37000000Y-49700000D03*
X37000000Y-52240000D03*
X37000000Y-54780000D03*
X37000000Y-57320000D03*
X37000000Y-59860000D03*
X37000000Y-62400000D03*
X37000000Y-64940000D03*
X37000000Y-67480000D03*
X37000000Y-70020000D03*
X36996320Y-72557280D03*
X36996320Y-75097280D03*
X36996320Y-77637280D03*
X59860000Y-77640000D03*
X59860000Y-75100000D03*
X59860000Y-72560000D03*
X59860000Y-70020000D03*
X59860000Y-67480000D03*
X59860000Y-64940000D03*
X59860000Y-62400000D03*
X59860000Y-59860000D03*
X59860000Y-57320000D03*
X59860000Y-54780000D03*
X59860000Y-52240000D03*
X59860000Y-49700000D03*
X59860000Y-47160000D03*
X59860000Y-44620000D03*
X59860000Y-42080000D03*
X59860000Y-39540000D03*
X59860000Y-37000000D03*
X59860000Y-34460000D03*
X59860000Y-31920000D03*
X59860000Y-29380000D03*
X59860000Y-26840000D03*
X59860000Y-24300000D03*
%TD*%
D14*
%TO.C,J29*%
X68000000Y-46000000D03*
D11*
X68000000Y-43500000D03*
X68000000Y-41000000D03*
%TD*%
D15*
%TO.C,J6*%
X22000000Y-38137280D03*
D16*
X24500000Y-38137280D03*
X27000000Y-38137280D03*
X29500000Y-38137280D03*
%TD*%
D10*
%TO.C,J27*%
X76000000Y-60000000D03*
D11*
X76000000Y-62500000D03*
X76000000Y-65000000D03*
X76000000Y-67500000D03*
%TD*%
D10*
%TO.C,J28*%
X21500000Y-54000000D03*
D11*
X21500000Y-56500000D03*
X21500000Y-59000000D03*
X21500000Y-61500000D03*
X21500000Y-64000000D03*
%TD*%
D22*
%TO.C,J3*%
X75000000Y-22000000D03*
D13*
X75000000Y-19500000D03*
%TD*%
M02*
